<svg version="1.1" xmlns="http://www.w3.org/2000/svg" xmlns:xlink="http://www.w3.org/1999/xlink" width="261.7294" height="235.44983" viewBox="0,0,261.7294,235.44983"><g transform="translate(-117.31465,-69.63185)"><g data-paper-data="{&quot;isPaintingLayer&quot;:true}" fill="#fa5c5c" fill-rule="nonzero" stroke="none" stroke-width="1" stroke-linecap="butt" stroke-linejoin="miter" stroke-miterlimit="10" stroke-dasharray="" stroke-dashoffset="0" style="mix-blend-mode: normal"><path d="M151.43509,71.08794c10.10024,-0.88 60.08196,-1.4528 96.74319,-1.456c36.6623,-0.00533 61.26169,0.21013 96.74533,1.456c11.41437,6.77654 33.9071,32.61762 34.12044,39.39522v11.21707c0,14.22081 -13.29063,26.71575 -25.3578,26.71575c-14.48849,0 -26.56313,-12.00854 -26.56313,-26.26135c0,14.25281 -11.65863,26.26135 -26.14926,26.26135c-14.48956,0 -25.77486,-12.00854 -25.77486,-26.26135c0,14.25281 -12.39677,26.26135 -26.88846,26.26135h-0.2624c-14.49063,0 -26.88739,-12.00854 -26.88739,-26.26135c0,14.25281 -11.28423,26.26135 -25.77593,26.26135c-14.49063,0 -26.14926,-12.00854 -26.14926,-26.26135c-0.00107,14.25281 -12.07357,26.26135 -26.56313,26.26135c-12.06717,0 -25.3578,-12.49707 -25.3578,-26.71575v-11.21707c0.21333,-6.77654 22.70607,-32.61655 34.12257,-39.39522zM220.98049,141.71625c1.37067,2.41254 3.07093,4.62225 5.05172,6.56534c5.68609,5.56173 13.32606,8.6725 21.27994,8.66454c0.2912,0 0.5792,-0.0128 0.8672,-0.02133h0.00747c0.288,0.00853 0.576,0.02133 0.864,0.02133c7.95403,0.00767 15.59403,-3.10348 21.27994,-8.66561c1.98081,-1.94307 3.68107,-4.15278 5.05172,-6.56534c1.38549,2.41522 3.10163,4.62503 5.09865,6.56534c5.46985,5.3472 12.9685,8.66454 21.23301,8.66454c7.95329,0.00769 15.59243,-3.10396 21.27674,-8.66667c1.98186,-1.94027 3.48692,-4.01707 4.86719,-6.43414l0.0064,0.00427c1.3792,2.4224 3.29919,4.496 5.28532,6.43947c5.68671,5.55907 13.32534,8.66845 21.27781,8.66134c0.99733,0 2.03306,-0.2752 2.87146,-0.5632c1.1648,12.13014 1.65653,23.72161 1.82933,32.17602l0.0032,0.048c0.02133,4.29334 0.04053,7.82294 0.064,12.72534c-0.224,25.45068 2.52053,82.48965 -11.2213,96.50566c-21.29487,4.96534 -60.47983,7.22667 -99.79065,7.24054h-0.0064c-39.31189,-0.01387 -78.49685,-2.2752 -99.79172,-7.24054c-13.74183,-14.01494 -10.9973,-71.05391 -11.2213,-96.50459c0.02133,-4.90347 0.04267,-8.43307 0.064,-12.72534l0.00213,-0.048c0.17387,-8.45227 0.6656,-20.04481 1.83039,-32.17495c0.8384,0.288 1.87519,0.5632 2.87146,0.5632c7.95246,0.00711 15.5911,-3.10227 21.27781,-8.66134c1.98613,-1.94347 3.90612,-4.01814 5.28425,-6.43947l0.0064,-0.00427c1.3792,2.41707 2.88533,4.4928 4.86719,6.43414c5.68453,5.56316 13.32404,8.6752 21.27781,8.66774c8.26558,0 15.76316,-3.3152 21.23301,-8.66347c1.99702,-1.94031 3.71316,-4.15011 5.09865,-6.56534zM199.12775,169.97654c-4.08852,0 -20.44368,0 -31.83991,32.00749l-12.24423,43.90829c-9.07091,32.66669 2.90346,33.46455 17.84102,33.49335c22.1514,-0.82453 34.41804,-16.91201 34.41804,-32.99735c12.2613,2.0096 26.56633,3.01547 40.87242,3.01547h0.0064c14.30503,-0.00107 28.61005,-1.00587 40.87242,-3.01547c0,16.08534 12.26557,32.17282 34.41804,32.99735c14.93756,-0.0288 26.91299,-0.82773 17.84208,-33.49335l-12.24103,-43.90936c-11.39623,-32.00749 -27.75139,-32.00749 -31.83991,-32.00749l0.00213,0.01067h-0.01493c-8.65384,0.01707 -16.34129,-0.00107 -25.86659,10.39574c-7.49758,-0.78613 -15.33116,-1.1776 -23.17113,-1.16693h-0.0064c-7.83998,-0.01173 -15.67356,0.3808 -23.17007,1.16693c-9.52531,-10.39574 -17.21275,-10.37761 -25.86659,-10.39574h-0.016l0.00213,-0.01067zM248.17828,195.13175l0.0032,-0.00213v0.0064c0,0 23.3194,21.41868 27.50926,29.02935l-15.25756,-0.6112v13.30561c0,0.62293 -6.12372,0.36907 -12.25063,0.08533h-0.0064c-6.12905,0.28373 -12.2517,0.5376 -12.2517,-0.08533v-13.30561l-15.25756,0.6112c4.18879,-7.61067 27.48792,-29.00802 27.50926,-29.02935v-0.0064z"/></g></g></svg>
